<?xml version="1.0" encoding="UTF-8"?>
<svg width="419px" height="77px" viewBox="0 0 419 77" version="1.1" xmlns="http://www.w3.org/2000/svg" xmlns:xlink="http://www.w3.org/1999/xlink">
    <title>UCDavis_CAES_logo_black</title>
    <defs>
        <polygon id="path-1" points="0 0 28.024 0 28.024 14.429 0 14.429"></polygon>
    </defs>
    <g id="Symbols" stroke="none" stroke-width="1" fill="none" fill-rule="evenodd">
        <g id="Artboard" transform="translate(-375, -866)">
            <g id="UCDavis_CAES_logo_black" transform="translate(375, 866.0157)">
                <path d="M51.292,29.1253035 C51.77,20.6123035 50.174,12.4723035 46.965,5.17130353 C46.277,3.60430353 45.488,2.09430353 44.656,0.612303526 L0,0.612303526 L0,76.6253035 L12.864,76.6253035 C33.963,70.8633035 49.993,52.1653035 51.292,29.1253035" id="Fill-1" fill="#1A1919"></path>
                <path d="M49.838,0.612303526 C54.471,7.02130353 57.866,14.4733035 59.551,22.7253035 C63.739,43.2493035 56.419,63.4403035 42.024,76.6253035 L76.017,76.6253035 L76.017,0.612303526 L49.838,0.612303526" id="Fill-2" fill="#1A1919"></path>
                <path d="M231.753,25.6933035 L234.471,18.5123035 L234.941,18.9213035 C236.607,20.2803035 238.868,21.4363035 241.001,21.4823035 C242.909,21.5263035 243.84,21.0183035 243.587,19.4033035 C243.4,18.1983035 242.038,17.9853035 241.186,17.8183035 L239.321,17.4453035 C235.691,16.7663035 232.638,14.5273035 232.638,10.2833035 C232.638,3.86730353 238.168,0.269303526 243.73,0.269303526 C246.651,0.269303526 249.334,1.01330353 251.841,2.64630353 L249.486,9.00930353 C248.192,8.07730353 246.237,6.76630353 243.76,6.67730353 C242.946,6.64630353 241.08,7.07530353 241.677,8.96630353 C241.935,9.77230353 243.09,10.1113035 243.801,10.2833035 L245.909,10.7923035 C249.84,11.7083035 252.687,13.9483035 252.687,18.5303035 C252.687,24.9803035 247.123,28.1713035 241.598,28.1713035 C238.372,28.1713035 234.638,27.2533035 231.753,25.6933035" id="Fill-3" fill="#1A1919"></path>
                <polygon id="Fill-4" fill="#1A1919" points="220.284 27.7653035 229.753 27.7653035 229.753 0.710303526 220.284 0.710303526"></polygon>
                <polyline id="Fill-5" fill="#1A1919" points="209.606 0.709303526 219.304 0.709303526 209.397 27.7653035 201.528 27.7653035 191.653 0.709303526 201.318 0.709303526 205.464 17.0363035 209.606 0.709303526"></polyline>
                <path d="M182.795,8.51930353 L182.795,8.51930353 C182.967,9.67030353 184.663,17.9513035 184.663,17.9513035 L180.94,17.9513035 L182.795,8.51930353 Z M168.681,27.7653035 L178.52,27.7653035 L179.269,24.3673035 L186.289,24.3673035 L187.221,27.7653035 L197.066,27.7653035 L187.851,0.710303526 L177.53,0.710303526 L168.681,27.7653035 L168.681,27.7653035 Z" id="Fill-6" fill="#1A1919"></path>
                <g id="Group-10" transform="translate(113.376, 0)" fill="#1A1919">
                    <path d="M30.977,0.709303526 L40.676,0.709303526 C49.333,0.709303526 55.945,4.68330353 55.945,14.6283035 C55.945,22.6403035 50.557,27.7653035 42.987,27.7653035 L30.977,27.7503035 L30.977,0.709303526 Z M40.51,19.9973035 L41.145,19.9973035 C44.266,19.9973035 46.582,18.1243035 46.582,14.5933035 C46.582,10.7923035 44.531,8.67230353 41.102,8.67230353 L40.51,8.67230353 L40.51,19.9973035 L40.51,19.9973035 Z" id="Fill-7"></path>
                    <path d="M25.314,1.55830353 L25.82,5.99930353 C25.938,7.05230353 26.541,9.58030353 25.795,9.24230353 C25.331,9.03430353 24.948,7.88830353 24.568,6.86930353 C24.375,6.35230353 23.453,3.90830353 23.212,3.72830353 C22.045,2.85730353 19.138,1.87330353 17.171,1.86430353 C11.207,1.84230353 7.262,6.24230353 7.262,14.0513035 C7.262,19.6513035 9.942,26.3693035 16.763,26.3693035 C19.207,26.3693035 23.887,25.6003035 25.162,22.1233035 C25.738,20.5493035 26.264,19.1503035 26.645,19.5763035 C26.929,19.8853035 26.56,21.1453035 26.39,21.8243035 C25.586,25.0473035 25.542,26.0243035 25.289,26.1493035 C22.208,27.6983035 18.255,28.2073035 14.797,28.2073035 C3.797,28.2073035 0,21.7903035 0,15.3753035 C0,4.24230353 6.839,-0.446696474 17.438,0.033303526 C20.12,0.133303526 22.803,0.610303526 25.314,1.55830353" id="Fill-9"></path>
                </g>
                <path d="M106.216,2.05230353 L104.454,1.43730353 C103.865,0.905303526 104.585,0.756303526 104.585,0.756303526 C104.585,0.756303526 107.13,1.22930353 113.471,0.690303526 C113.471,0.690303526 114.021,0.801303526 113.642,1.24730353 L111.56,2.13930353 C110.205,2.73030353 110.205,2.39130353 110.205,3.87630353 L110.193,17.6643035 C110.193,28.4493035 99.226,28.2073035 97.089,28.2073035 C96.07,28.2073035 86.01,28.2073035 86.01,19.5503035 L86.01,4.95330353 C86.01,2.40930353 86.283,2.47530353 85.437,2.17830353 L82.893,1.22330353 C82.893,1.22330353 82.461,0.612303526 83.229,0.651303526 C85.309,0.756303526 88.319,1.20130353 95.4,0.690303526 C95.4,0.690303526 96.017,0.841303526 95.611,1.28630353 L93.494,1.88330353 C91.883,2.60530353 92.096,2.05230353 92.053,3.70730353 L92.104,18.0983035 C92.104,21.6273035 93.92,25.9973035 99.631,25.9973035 C107.405,25.9973035 107.479,19.2723035 107.479,17.7763035 L107.492,3.52030353 C107.575,2.17830353 107.405,2.56030353 106.216,2.05230353" id="Fill-11" fill="#1A1919"></path>
                <polygon id="Fill-12" fill="#1A1919" points="86.012 34.8893035 418.725 34.8893035 418.725 33.7593035 86.012 33.7593035"></polygon>
                <path d="M95.701,46.2123035 C95.52,45.9653035 95.312,45.7493035 95.081,45.5653035 C94.849,45.3793035 94.6,45.2253035 94.332,45.0983035 C94.065,44.9723035 93.786,44.8773035 93.492,44.8123035 C93.199,44.7483035 92.902,44.7153035 92.603,44.7153035 C92.063,44.7153035 91.57,44.8123035 91.123,45.0063035 C90.678,45.1993035 90.296,45.4673035 89.98,45.8073035 C89.663,46.1473035 89.416,46.5463035 89.24,47.0043035 C89.065,47.4613035 88.977,47.9553035 88.977,48.4833035 C88.977,49.0233035 89.065,49.5183035 89.24,49.9703035 C89.416,50.4223035 89.666,50.8113035 89.988,51.1373035 C90.311,51.4623035 90.699,51.7183035 91.15,51.9023035 C91.602,52.0863035 92.103,52.1783035 92.656,52.1783035 C92.943,52.1783035 93.228,52.1463035 93.513,52.0783035 C93.798,52.0113035 94.071,51.9143035 94.332,51.7883035 C94.593,51.6613035 94.84,51.5103035 95.071,51.3343035 C95.303,51.1583035 95.514,50.9593035 95.701,50.7363035 L95.701,54.9703035 C95.407,55.0573035 95.132,55.1413035 94.874,55.2213035 C94.616,55.2993035 94.363,55.3673035 94.116,55.4233035 C93.87,55.4793035 93.623,55.5233035 93.372,55.5553035 C93.123,55.5883035 92.86,55.6043035 92.586,55.6043035 C91.634,55.6043035 90.723,55.4303035 89.852,55.0843035 C88.98,54.7383035 88.19,54.2453035 87.479,53.6053035 C86.729,52.9253035 86.177,52.1513035 85.825,51.2863035 C85.473,50.4213035 85.297,49.4803035 85.297,48.4663035 C85.297,47.5323035 85.468,46.6373035 85.808,45.7813035 C86.148,44.9243035 86.647,44.1613035 87.304,43.4923035 C87.639,43.1523035 88.005,42.8453035 88.404,42.5723035 C88.803,42.3003035 89.225,42.0673035 89.668,41.8763035 C90.109,41.6863035 90.569,41.5403035 91.045,41.4413035 C91.52,41.3413035 91.995,41.2913035 92.47,41.2913035 C93.04,41.2913035 93.589,41.3523035 94.116,41.4723035 C94.645,41.5933035 95.173,41.7613035 95.701,41.9793035 L95.701,46.2123035" id="Fill-13" fill="#1A1919"></path>
                <path d="M105.886,44.6273035 C105.358,44.6273035 104.861,44.7253035 104.398,44.9223035 C103.935,45.1193035 103.528,45.3833035 103.179,45.7153035 C102.831,46.0463035 102.554,46.4283035 102.352,46.8583035 C102.15,47.2903035 102.048,47.7413035 102.048,48.2103035 C102.048,48.7973035 102.15,49.3383035 102.352,49.8343035 C102.554,50.3293035 102.831,50.7573035 103.179,51.1183035 C103.528,51.4793035 103.935,51.7613035 104.398,51.9633035 C104.861,52.1663035 105.358,52.2683035 105.886,52.2683035 C106.413,52.2683035 106.911,52.1663035 107.377,51.9633035 C107.844,51.7613035 108.251,51.4793035 108.596,51.1183035 C108.942,50.7573035 109.217,50.3293035 109.418,49.8343035 C109.622,49.3383035 109.724,48.7973035 109.724,48.2103035 C109.724,47.7413035 109.622,47.2903035 109.418,46.8583035 C109.217,46.4283035 108.942,46.0463035 108.596,45.7153035 C108.251,45.3833035 107.844,45.1193035 107.377,44.9223035 C106.911,44.7253035 106.413,44.6273035 105.886,44.6273035 M105.886,41.2033035 C106.537,41.2033035 107.175,41.2813035 107.8,41.4373035 C108.425,41.5933035 109.016,41.8133035 109.573,42.1013035 C110.131,42.3883035 110.645,42.7403035 111.114,43.1533035 C111.584,43.5673035 111.987,44.0333035 112.324,44.5533035 C112.662,45.0723035 112.926,45.6373035 113.117,46.2473035 C113.307,46.8573035 113.403,47.5063035 113.403,48.1923035 C113.403,49.2953035 113.217,50.3063035 112.844,51.2243035 C112.471,52.1433035 111.95,52.9323035 111.281,53.5923035 C110.612,54.2533035 109.819,54.7673035 108.9,55.1373035 C107.982,55.5063035 106.977,55.6913035 105.886,55.6913035 C105.157,55.6913035 104.467,55.6083035 103.813,55.4413035 C103.159,55.2743035 102.554,55.0343035 101.999,54.7233035 C101.445,54.4133035 100.944,54.0343035 100.495,53.5923035 C100.045,53.1493035 99.664,52.6493035 99.35,52.0923035 C99.037,51.5343035 98.794,50.9273035 98.625,50.2743035 C98.455,49.6193035 98.369,48.9263035 98.369,48.1923035 C98.369,47.5063035 98.465,46.8573035 98.655,46.2473035 C98.846,45.6373035 99.111,45.0723035 99.452,44.5533035 C99.792,44.0333035 100.195,43.5673035 100.662,43.1533035 C101.128,42.7403035 101.641,42.3883035 102.198,42.1013035 C102.755,41.8133035 103.346,41.5933035 103.971,41.4373035 C104.597,41.2813035 105.234,41.2033035 105.886,41.2033035" id="Fill-14" fill="#1A1919"></path>
                <polyline id="Fill-15" fill="#1A1919" points="119.966 52.2503035 124.209 52.2503035 124.209 55.2433035 116.436 55.2433035 116.436 41.6523035 119.966 41.6523035 119.966 52.2503035"></polyline>
                <polyline id="Fill-16" fill="#1A1919" points="130.91 52.2503035 135.153 52.2503035 135.153 55.2433035 127.38 55.2433035 127.38 41.6523035 130.91 41.6523035 130.91 52.2503035"></polyline>
                <polyline id="Fill-17" fill="#1A1919" points="141.854 44.6453035 141.854 46.9153035 145.84 46.9153035 145.84 49.9093035 141.854 49.9093035 141.854 52.2503035 146.061 52.2503035 146.061 55.2413035 138.324 55.2413035 138.324 41.6523035 146.061 41.6523035 146.061 44.6453035 141.854 44.6453035"></polyline>
                <path d="M163.466,47.6553035 C163.456,48.1483035 163.434,48.6263035 163.405,49.0903035 C163.376,49.5533035 163.312,50.0073035 163.215,50.4503035 C163.12,50.8923035 162.981,51.3283035 162.802,51.7523035 C162.623,52.1783035 162.38,52.6023035 162.076,53.0253035 C161.741,53.4883035 161.368,53.8883035 160.959,54.2253035 C160.547,54.5633035 160.104,54.8413035 159.628,55.0583035 C159.154,55.2743035 158.652,55.4353035 158.125,55.5373035 C157.595,55.6403035 157.046,55.6913035 156.478,55.6913035 C155.41,55.6913035 154.431,55.5183035 153.543,55.1733035 C152.654,54.8263035 151.889,54.3383035 151.25,53.7073035 C150.61,53.0753035 150.113,52.3213035 149.757,51.4403035 C149.402,50.5603035 149.225,49.5863035 149.225,48.5173035 C149.225,47.4143035 149.404,46.4123035 149.762,45.5123035 C150.12,44.6123035 150.624,43.8433035 151.271,43.2063035 C151.919,42.5703035 152.696,42.0773035 153.6,41.7273035 C154.503,41.3783035 155.503,41.2033035 156.601,41.2033035 C157.998,41.2033035 159.221,41.5193035 160.271,42.1503035 C161.322,42.7813035 162.14,43.7333035 162.727,45.0063035 L159.375,46.4063035 C159.251,46.0833035 159.095,45.7903035 158.908,45.5263035 C158.718,45.2613035 158.502,45.0333035 158.256,44.8433035 C158.009,44.6523035 157.734,44.5063035 157.428,44.4033035 C157.123,44.3013035 156.792,44.2503035 156.435,44.2503035 C155.854,44.2503035 155.341,44.3753035 154.902,44.6283035 C154.462,44.8803035 154.094,45.2103035 153.797,45.6173035 C153.501,46.0263035 153.278,46.4853035 153.129,46.9953035 C152.979,47.5063035 152.904,48.0193035 152.904,48.5363035 C152.904,49.0643035 152.982,49.5813035 153.137,50.0903035 C153.293,50.5963035 153.522,51.0513035 153.824,51.4533035 C154.126,51.8553035 154.501,52.1783035 154.951,52.4223035 C155.399,52.6663035 155.915,52.7873035 156.496,52.7873035 C156.876,52.7873035 157.233,52.7383035 157.565,52.6373035 C157.896,52.5373035 158.186,52.3883035 158.436,52.1933035 C158.685,51.9963035 158.889,51.7513035 159.047,51.4573035 C159.206,51.1643035 159.303,50.8213035 159.338,50.4283035 L156.452,50.4283035 L156.452,47.6553035 L163.466,47.6553035" id="Fill-18" fill="#1A1919"></path>
                <polyline id="Fill-19" fill="#1A1919" points="169.986 44.6453035 169.986 46.9153035 173.973 46.9153035 173.973 49.9093035 169.986 49.9093035 169.986 52.2503035 174.193 52.2503035 174.193 55.2413035 166.456 55.2413035 166.456 41.6523035 174.193 41.6523035 174.193 44.6453035 169.986 44.6453035"></polyline>
                <path d="M189.019,47.6633035 C188.642,47.6633035 188.288,47.7333035 187.957,47.8733035 C187.626,48.0153035 187.335,48.2023035 187.087,48.4403035 C186.837,48.6773035 186.64,48.9493035 186.496,49.2563035 C186.351,49.5643035 186.28,49.8873035 186.28,50.2203035 C186.28,50.6413035 186.351,51.0263035 186.496,51.3813035 C186.64,51.7353035 186.837,52.0403035 187.087,52.2993035 C187.335,52.5553035 187.626,52.7573035 187.957,52.9023035 C188.288,53.0463035 188.642,53.1193035 189.019,53.1193035 C189.396,53.1193035 189.751,53.0463035 190.084,52.9023035 C190.418,52.7573035 190.708,52.5553035 190.955,52.2993035 C191.202,52.0403035 191.397,51.7353035 191.542,51.3813035 C191.686,51.0263035 191.759,50.6413035 191.759,50.2203035 C191.759,49.8873035 191.686,49.5643035 191.542,49.2563035 C191.397,48.9493035 191.202,48.6773035 190.955,48.4403035 C190.708,48.2023035 190.418,48.0153035 190.084,47.8733035 C189.751,47.7333035 189.396,47.6633035 189.019,47.6633035 M189.019,45.2193035 C189.484,45.2193035 189.939,45.2743035 190.385,45.3853035 C190.832,45.4973035 191.253,45.6543035 191.652,45.8603035 C192.049,46.0643035 192.418,46.3143035 192.752,46.6113035 C193.086,46.9063035 193.376,47.2383035 193.616,47.6103035 C193.856,47.9813035 194.044,48.3843035 194.182,48.8203035 C194.317,49.2553035 194.385,49.7183035 194.385,50.2083035 C194.385,50.9963035 194.252,51.7193035 193.986,52.3733035 C193.72,53.0283035 193.35,53.5933035 192.871,54.0653035 C192.394,54.5353035 191.828,54.9043035 191.171,55.1683035 C190.515,55.4313035 189.799,55.5633035 189.019,55.5633035 C188.499,55.5633035 188.006,55.5053035 187.539,55.3843035 C187.071,55.2643035 186.64,55.0953035 186.244,54.8703035 C185.848,54.6503035 185.49,54.3813035 185.169,54.0653035 C184.849,53.7473035 184.577,53.3903035 184.352,52.9923035 C184.129,52.5953035 183.956,52.1613035 183.835,51.6963035 C183.712,51.2273035 183.652,50.7323035 183.652,50.2083035 C183.652,49.7183035 183.72,49.2553035 183.858,48.8203035 C183.993,48.3843035 184.182,47.9813035 184.425,47.6103035 C184.668,47.2383035 184.957,46.9063035 185.289,46.6113035 C185.622,46.3143035 185.988,46.0643035 186.386,45.8603035 C186.784,45.6543035 187.206,45.4973035 187.652,45.3853035 C188.099,45.2743035 188.553,45.2193035 189.019,45.2193035" id="Fill-20" fill="#1A1919"></path>
                <polyline id="Fill-21" fill="#1A1919" points="198.58 47.6763035 198.58 49.2973035 201.352 49.2973035 201.352 51.4343035 198.58 51.4343035 198.58 55.2433035 196.06 55.2433035 196.06 45.5403035 201.634 45.5403035 201.634 47.6763035 198.58 47.6763035"></polyline>
                <path d="M216.483,45.8513035 L216.449,45.8513035 L214.987,50.1813035 L217.926,50.1813035 L216.483,45.8513035 Z M214.01,52.8833035 L213.077,55.2413035 L209.328,55.2413035 L214.556,41.6523035 L218.411,41.6523035 L223.534,55.2413035 L219.767,55.2413035 L218.878,52.8833035 L214.01,52.8833035 L214.01,52.8833035 Z" id="Fill-22" fill="#1A1919"></path>
                <path d="M239.748,47.6553035 C239.736,48.1483035 239.715,48.6263035 239.687,49.0903035 C239.657,49.5533035 239.594,50.0073035 239.497,50.4503035 C239.401,50.8923035 239.262,51.3283035 239.084,51.7523035 C238.904,52.1783035 238.662,52.6023035 238.357,53.0253035 C238.023,53.4883035 237.65,53.8883035 237.24,54.2253035 C236.829,54.5633035 236.386,54.8413035 235.91,55.0583035 C235.436,55.2743035 234.934,55.4353035 234.406,55.5373035 C233.876,55.6403035 233.328,55.6913035 232.76,55.6913035 C231.691,55.6913035 230.712,55.5183035 229.824,55.1733035 C228.934,54.8263035 228.17,54.3383035 227.531,53.7073035 C226.892,53.0753035 226.395,52.3213035 226.04,51.4403035 C225.683,50.5603035 225.507,49.5863035 225.507,48.5173035 C225.507,47.4143035 225.686,46.4123035 226.043,45.5123035 C226.402,44.6123035 226.905,43.8433035 227.553,43.2063035 C228.202,42.5703035 228.978,42.0773035 229.881,41.7273035 C230.786,41.3783035 231.786,41.2033035 232.883,41.2033035 C234.28,41.2033035 235.502,41.5193035 236.552,42.1503035 C237.603,42.7813035 238.421,43.7333035 239.009,45.0063035 L235.656,46.4063035 C235.532,46.0833035 235.376,45.7903035 235.189,45.5263035 C235.001,45.2613035 234.785,45.0333035 234.537,44.8433035 C234.291,44.6523035 234.016,44.5063035 233.71,44.4033035 C233.404,44.3013035 233.074,44.2503035 232.715,44.2503035 C232.134,44.2503035 231.625,44.3753035 231.183,44.6283035 C230.744,44.8803035 230.376,45.2103035 230.08,45.6173035 C229.783,46.0263035 229.56,46.4853035 229.411,46.9953035 C229.261,47.5063035 229.186,48.0193035 229.186,48.5363035 C229.186,49.0643035 229.263,49.5813035 229.418,50.0903035 C229.575,50.5963035 229.803,51.0513035 230.106,51.4533035 C230.408,51.8553035 230.784,52.1783035 231.232,52.4223035 C231.681,52.6663035 232.196,52.7873035 232.777,52.7873035 C233.158,52.7873035 233.514,52.7383035 233.846,52.6373035 C234.177,52.5373035 234.468,52.3883035 234.718,52.1933035 C234.967,51.9963035 235.171,51.7513035 235.329,51.4573035 C235.488,51.1643035 235.585,50.8213035 235.62,50.4283035 L232.734,50.4283035 L232.734,47.6553035 L239.748,47.6553035" id="Fill-23" fill="#1A1919"></path>
                <path d="M246.989,47.7443035 L247.331,47.7443035 C247.619,47.7443035 247.91,47.7243035 248.203,47.6863035 C248.497,47.6483035 248.76,47.5693035 248.996,47.4493035 C249.23,47.3273035 249.42,47.1583035 249.567,46.9383035 C249.713,46.7193035 249.787,46.4243035 249.787,46.0533035 C249.787,45.6843035 249.713,45.3873035 249.567,45.1643035 C249.42,44.9413035 249.23,44.7693035 248.996,44.6493035 C248.76,44.5293035 248.497,44.4503035 248.203,44.4113035 C247.91,44.3733035 247.619,44.3553035 247.331,44.3553035 L246.989,44.3553035 L246.989,47.7443035 Z M254.76,55.2433035 L250.359,55.2433035 L247.033,50.0153035 L246.989,50.0153035 L246.989,55.2433035 L243.459,55.2433035 L243.459,41.6523035 L248.74,41.6523035 C249.409,41.6523035 250.032,41.7343035 250.61,41.8993035 C251.188,42.0643035 251.689,42.3153035 252.111,42.6573035 C252.534,42.9963035 252.865,43.4293035 253.105,43.9533035 C253.346,44.4793035 253.466,45.1053035 253.466,45.8323035 C253.466,46.3033035 253.402,46.7493035 253.273,47.1763035 C253.143,47.6023035 252.952,47.9843035 252.7,48.3243035 C252.448,48.6653035 252.137,48.9523035 251.767,49.1873035 C251.398,49.4223035 250.972,49.5833035 250.492,49.6713035 L254.76,55.2433035 L254.76,55.2433035 Z" id="Fill-24" fill="#1A1919"></path>
                <polygon id="Fill-25" fill="#1A1919" points="257.828 55.2413035 261.358 55.2413035 261.358 41.6523035 257.828 41.6523035"></polygon>
                <path d="M275.139,46.2123035 C274.957,45.9653035 274.75,45.7493035 274.518,45.5653035 C274.287,45.3793035 274.037,45.2253035 273.769,45.0983035 C273.503,44.9723035 273.223,44.8773035 272.929,44.8123035 C272.636,44.7483035 272.34,44.7153035 272.041,44.7153035 C271.501,44.7153035 271.007,44.8123035 270.561,45.0063035 C270.115,45.1993035 269.733,45.4673035 269.418,45.8073035 C269.1,46.1473035 268.854,46.5463035 268.678,47.0043035 C268.502,47.4613035 268.415,47.9553035 268.415,48.4833035 C268.415,49.0233035 268.502,49.5183035 268.678,49.9703035 C268.854,50.4223035 269.103,50.8113035 269.425,51.1373035 C269.749,51.4623035 270.136,51.7183035 270.587,51.9023035 C271.041,52.0863035 271.541,52.1783035 272.093,52.1783035 C272.38,52.1783035 272.667,52.1463035 272.951,52.0783035 C273.236,52.0113035 273.508,51.9143035 273.769,51.7883035 C274.031,51.6613035 274.278,51.5103035 274.509,51.3343035 C274.74,51.1583035 274.951,50.9593035 275.139,50.7363035 L275.139,54.9703035 C274.845,55.0573035 274.57,55.1413035 274.311,55.2213035 C274.053,55.2993035 273.8,55.3673035 273.554,55.4233035 C273.307,55.4793035 273.06,55.5233035 272.81,55.5553035 C272.561,55.5883035 272.298,55.6043035 272.023,55.6043035 C271.073,55.6043035 270.161,55.4303035 269.29,55.0843035 C268.418,54.7383035 267.627,54.2453035 266.918,53.6053035 C266.167,52.9253035 265.615,52.1513035 265.263,51.2863035 C264.911,50.4213035 264.735,49.4803035 264.735,48.4663035 C264.735,47.5323035 264.905,46.6373035 265.246,45.7813035 C265.585,44.9243035 266.085,44.1613035 266.742,43.4923035 C267.076,43.1523035 267.443,42.8453035 267.841,42.5723035 C268.241,42.3003035 268.662,42.0673035 269.105,41.8763035 C269.549,41.6863035 270.006,41.5403035 270.482,41.4413035 C270.958,41.3413035 271.432,41.2913035 271.909,41.2913035 C272.478,41.2913035 273.026,41.3523035 273.554,41.4723035 C274.082,41.5933035 274.611,41.7613035 275.139,41.9793035 L275.139,46.2123035" id="Fill-26" fill="#1A1919"></path>
                <path d="M291.144,41.6523035 L291.144,49.2923035 C291.144,49.7323035 291.134,50.1673035 291.113,50.5953035 C291.093,51.0243035 291.036,51.4413035 290.942,51.8503035 C290.848,52.2573035 290.706,52.6513035 290.514,53.0303035 C290.324,53.4083035 290.062,53.7613035 289.727,54.0893035 C289.445,54.3713035 289.126,54.6073035 288.768,54.7983035 C288.41,54.9893035 288.034,55.1443035 287.641,55.2643035 C287.247,55.3853035 286.844,55.4713035 286.429,55.5253035 C286.017,55.5763035 285.613,55.6033035 285.22,55.6033035 C284.821,55.6033035 284.415,55.5763035 284.001,55.5253035 C283.587,55.4713035 283.186,55.3853035 282.794,55.2643035 C282.405,55.1443035 282.031,54.9893035 281.673,54.7983035 C281.316,54.6073035 280.995,54.3713035 280.713,54.0893035 C280.374,53.7613035 280.108,53.4083035 279.918,53.0303035 C279.726,52.6513035 279.585,52.2573035 279.491,51.8503035 C279.397,51.4413035 279.338,51.0243035 279.32,50.5953035 C279.298,50.1673035 279.288,49.7323035 279.288,49.2923035 L279.288,41.6523035 L282.818,41.6523035 L282.818,48.8083035 C282.818,49.1013035 282.825,49.3993035 282.84,49.6973035 C282.853,49.9973035 282.886,50.2823035 282.936,50.5563035 C282.986,50.8273035 283.062,51.0843035 283.165,51.3213035 C283.268,51.5593035 283.408,51.7653035 283.587,51.9413035 C283.767,52.1173035 283.988,52.2563035 284.251,52.3563035 C284.516,52.4553035 284.838,52.5053035 285.22,52.5053035 C285.596,52.5053035 285.917,52.4553035 286.184,52.3563035 C286.451,52.2563035 286.673,52.1173035 286.849,51.9413035 C287.025,51.7653035 287.164,51.5593035 287.266,51.3213035 C287.37,51.0843035 287.448,50.8273035 287.5,50.5563035 C287.552,50.2823035 287.585,49.9973035 287.596,49.6973035 C287.608,49.3993035 287.615,49.1013035 287.615,48.8083035 L287.615,41.6523035 L291.144,41.6523035" id="Fill-27" fill="#1A1919"></path>
                <polyline id="Fill-28" fill="#1A1919" points="299.037 52.2503035 303.279 52.2503035 303.279 55.2433035 295.506 55.2433035 295.506 41.6523035 299.037 41.6523035 299.037 52.2503035"></polyline>
                <polyline id="Fill-29" fill="#1A1919" points="310.899 55.2433035 307.37 55.2433035 307.37 44.6463035 304.448 44.6463035 304.448 41.6523035 313.823 41.6523035 313.823 44.6463035 310.899 44.6463035 310.899 55.2433035"></polyline>
                <path d="M328.857,41.6523035 L328.857,49.2923035 C328.857,49.7323035 328.847,50.1673035 328.826,50.5953035 C328.806,51.0243035 328.749,51.4413035 328.656,51.8503035 C328.561,52.2573035 328.419,52.6513035 328.228,53.0303035 C328.037,53.4083035 327.776,53.7613035 327.442,54.0893035 C327.159,54.3713035 326.838,54.6073035 326.482,54.7983035 C326.123,54.9893035 325.747,55.1443035 325.354,55.2643035 C324.96,55.3853035 324.558,55.4713035 324.143,55.5253035 C323.731,55.5763035 323.326,55.6033035 322.934,55.6033035 C322.536,55.6033035 322.128,55.5763035 321.714,55.5253035 C321.3,55.4713035 320.899,55.3853035 320.509,55.2643035 C320.119,55.1443035 319.745,54.9893035 319.387,54.7983035 C319.029,54.6073035 318.71,54.3713035 318.428,54.0893035 C318.087,53.7613035 317.821,53.4083035 317.631,53.0303035 C317.44,52.6513035 317.297,52.2573035 317.204,51.8503035 C317.11,51.4413035 317.052,51.0243035 317.033,50.5953035 C317.011,50.1673035 317.001,49.7323035 317.001,49.2923035 L317.001,41.6523035 L320.531,41.6523035 L320.531,48.8083035 C320.531,49.1013035 320.538,49.3993035 320.553,49.6973035 C320.567,49.9973035 320.6,50.2823035 320.65,50.5563035 C320.7,50.8273035 320.775,51.0843035 320.879,51.3213035 C320.982,51.5593035 321.122,51.7653035 321.3,51.9413035 C321.48,52.1173035 321.702,52.2563035 321.965,52.3563035 C322.229,52.4553035 322.552,52.5053035 322.934,52.5053035 C323.309,52.5053035 323.631,52.4553035 323.898,52.3563035 C324.165,52.2563035 324.386,52.1173035 324.563,51.9413035 C324.739,51.7653035 324.876,51.5593035 324.981,51.3213035 C325.084,51.0843035 325.161,50.8273035 325.212,50.5563035 C325.266,50.2823035 325.298,49.9973035 325.31,49.6973035 C325.322,49.3993035 325.328,49.1013035 325.328,48.8083035 L325.328,41.6523035 L328.857,41.6523035" id="Fill-30" fill="#1A1919"></path>
                <path d="M336.75,47.7443035 L337.092,47.7443035 C337.38,47.7443035 337.671,47.7243035 337.963,47.6863035 C338.257,47.6483035 338.522,47.5693035 338.757,47.4493035 C338.992,47.3273035 339.182,47.1583035 339.33,46.9383035 C339.476,46.7193035 339.548,46.4243035 339.548,46.0533035 C339.548,45.6843035 339.476,45.3873035 339.33,45.1643035 C339.182,44.9413035 338.992,44.7693035 338.757,44.6493035 C338.522,44.5293035 338.257,44.4503035 337.963,44.4113035 C337.671,44.3733035 337.38,44.3553035 337.092,44.3553035 L336.75,44.3553035 L336.75,47.7443035 Z M344.522,55.2433035 L340.12,55.2433035 L336.794,50.0153035 L336.75,50.0153035 L336.75,55.2433035 L333.22,55.2433035 L333.22,41.6523035 L338.501,41.6523035 C339.169,41.6523035 339.793,41.7343035 340.372,41.8993035 C340.95,42.0643035 341.451,42.3153035 341.873,42.6573035 C342.294,42.9963035 342.626,43.4293035 342.867,43.9533035 C343.107,44.4793035 343.227,45.1053035 343.227,45.8323035 C343.227,46.3033035 343.163,46.7493035 343.034,47.1763035 C342.905,47.6023035 342.714,47.9843035 342.462,48.3243035 C342.21,48.6653035 341.899,48.9523035 341.529,49.1873035 C341.16,49.4223035 340.734,49.5833035 340.253,49.6713035 L344.522,55.2433035 L344.522,55.2433035 Z" id="Fill-31" fill="#1A1919"></path>
                <path d="M354.134,45.8513035 L354.101,45.8513035 L352.638,50.1813035 L355.578,50.1813035 L354.134,45.8513035 Z M351.662,52.8833035 L350.73,55.2413035 L346.979,55.2413035 L352.209,41.6523035 L356.063,41.6523035 L361.185,55.2413035 L357.418,55.2413035 L356.53,52.8833035 L351.662,52.8833035 L351.662,52.8833035 Z" id="Fill-32" fill="#1A1919"></path>
                <polyline id="Fill-33" fill="#1A1919" points="367.844 52.2503035 372.086 52.2503035 372.086 55.2433035 364.314 55.2433035 364.314 41.6523035 367.844 41.6523035 367.844 52.2503035"></polyline>
                <path d="M89.89,69.5683035 L89.864,69.5683035 L88.821,72.6593035 L90.921,72.6593035 L89.89,69.5683035 Z M88.124,74.5893035 L87.458,76.2733035 L84.78,76.2733035 L88.514,66.5703035 L91.266,66.5703035 L94.923,76.2733035 L92.233,76.2733035 L91.599,74.5893035 L88.124,74.5893035 L88.124,74.5893035 Z" id="Fill-34" fill="#1A1919"></path>
                <polyline id="Fill-35" fill="#1A1919" points="96.157 66.5703035 98.677 66.5703035 103.302 72.5023035 103.329 72.5023035 103.329 66.5703035 105.847 66.5703035 105.847 76.2733035 103.329 76.2733035 98.709 70.3273035 98.677 70.3273035 98.677 76.2733035 96.157 76.2733035 96.157 66.5703035"></polyline>
                <path d="M110.535,74.1373035 L111.108,74.1373035 C111.484,74.1373035 111.842,74.0843035 112.179,73.9803035 C112.516,73.8753035 112.812,73.7103035 113.065,73.4893035 C113.319,73.2683035 113.521,72.9853035 113.671,72.6443035 C113.822,72.3023035 113.897,71.8953035 113.897,71.4213035 C113.897,70.9863035 113.829,70.5983035 113.693,70.2613035 C113.557,69.9253035 113.367,69.6413035 113.122,69.4113035 C112.876,69.1803035 112.585,69.0053035 112.248,68.8863035 C111.911,68.7663035 111.539,68.7053035 111.132,68.7053035 L110.535,68.7053035 L110.535,74.1373035 Z M108.016,66.5703035 L111.592,66.5703035 C112.04,66.5703035 112.474,66.6263035 112.893,66.7393035 C113.312,66.8523035 113.704,67.0133035 114.071,67.2203035 C114.438,67.4273035 114.771,67.6783035 115.073,67.9713035 C115.375,68.2653035 115.632,68.5923035 115.847,68.9523035 C116.059,69.3133035 116.226,69.7003035 116.346,70.1183035 C116.466,70.5333035 116.524,70.9683035 116.524,71.4213035 C116.524,71.8743035 116.466,72.3093035 116.346,72.7263035 C116.226,73.1423035 116.058,73.5323035 115.843,73.8913035 C115.627,74.2513035 115.368,74.5783035 115.066,74.8713035 C114.765,75.1643035 114.432,75.4143035 114.068,75.6223035 C113.703,75.8293035 113.312,75.9903035 112.893,76.1033035 C112.474,76.2163035 112.04,76.2733035 111.592,76.2733035 L108.016,76.2733035 L108.016,66.5703035 L108.016,66.5703035 Z" id="Fill-36" fill="#1A1919"></path>
                <polyline id="Fill-37" fill="#1A1919" points="128.738 65.6763035 128.738 67.9473035 132.725 67.9473035 132.725 70.9403035 128.738 70.9403035 128.738 73.2813035 132.945 73.2813035 132.945 76.2723035 125.209 76.2723035 125.209 62.6823035 132.945 62.6823035 132.945 65.6763035 128.738 65.6763035"></polyline>
                <polyline id="Fill-38" fill="#1A1919" points="136.912 62.6833035 140.441 62.6833035 146.918 70.9923035 146.954 70.9923035 146.954 62.6833035 150.484 62.6833035 150.484 76.2733035 146.954 76.2733035 140.485 67.9473035 140.441 67.9473035 140.441 76.2733035 136.912 76.2733035 136.912 62.6833035"></polyline>
                <polyline id="Fill-39" fill="#1A1919" points="160.211 70.9403035 163.511 62.6823035 167.349 62.6823035 161.549 76.2743035 158.802 76.2743035 153.089 62.6823035 156.937 62.6823035 160.211 70.9403035"></polyline>
                <polygon id="Fill-40" fill="#1A1919" points="169.965 76.2713035 173.495 76.2713035 173.495 62.6823035 169.965 62.6823035"></polygon>
                <g id="Group-44" transform="translate(177.578, 62.2333)">
                    <mask id="mask-2" fill="white">
                        <use xlink:href="#path-1"></use>
                    </mask>
                    <g id="Clip-42"></g>
                    <path d="M3.53,6.542 L3.873,6.542 C4.161,6.542 4.451,6.522 4.744,6.484 C5.038,6.445 5.301,6.366 5.537,6.246 C5.77,6.126 5.962,5.956 6.108,5.736 C6.256,5.514 6.329,5.221 6.329,4.85 C6.329,4.481 6.256,4.185 6.108,3.962 C5.962,3.739 5.77,3.567 5.537,3.446 C5.301,3.326 5.038,3.247 4.744,3.21 C4.451,3.171 4.161,3.151 3.873,3.151 L3.53,3.151 L3.53,6.542 Z M11.301,14.04 L6.9,14.04 L3.573,8.812 L3.53,8.812 L3.53,14.04 L0,14.04 L0,0.45 L5.281,0.45 C5.95,0.45 6.574,0.532 7.151,0.696 C7.73,0.861 8.23,1.113 8.652,1.453 C9.075,1.794 9.405,2.226 9.646,2.751 C9.886,3.277 10.007,3.903 10.007,4.631 C10.007,5.1 9.943,5.548 9.814,5.973 C9.685,6.399 9.494,6.781 9.241,7.121 C8.989,7.462 8.678,7.75 8.308,7.985 C7.939,8.218 7.513,8.381 7.033,8.468 L11.301,14.04 L11.301,14.04 Z" id="Fill-41" fill="#1A1919" mask="url(#mask-2)"></path>
                    <path d="M20.507,3.424 C19.978,3.424 19.483,3.523 19.019,3.719 C18.555,3.917 18.149,4.18 17.799,4.512 C17.451,4.844 17.174,5.225 16.973,5.656 C16.77,6.088 16.669,6.538 16.669,7.008 C16.669,7.593 16.77,8.135 16.973,8.632 C17.174,9.127 17.451,9.554 17.799,9.917 C18.149,10.278 18.555,10.557 19.019,10.76 C19.483,10.964 19.978,11.065 20.507,11.065 C21.034,11.065 21.532,10.964 21.999,10.76 C22.465,10.557 22.871,10.278 23.217,9.917 C23.565,9.554 23.838,9.127 24.041,8.632 C24.243,8.135 24.344,7.593 24.344,7.008 C24.344,6.538 24.243,6.088 24.041,5.656 C23.838,5.225 23.565,4.844 23.217,4.512 C22.871,4.18 22.465,3.917 21.999,3.719 C21.532,3.523 21.034,3.424 20.507,3.424 M20.507,0 C21.158,0 21.797,0.079 22.421,0.235 C23.046,0.39 23.637,0.612 24.194,0.9 C24.752,1.187 25.265,1.537 25.734,1.951 C26.204,2.365 26.608,2.83 26.945,3.35 C27.283,3.869 27.547,4.433 27.738,5.045 C27.928,5.655 28.024,6.302 28.024,6.989 C28.024,8.093 27.837,9.103 27.465,10.021 C27.091,10.94 26.571,11.729 25.903,12.389 C25.233,13.051 24.439,13.564 23.521,13.934 C22.602,14.303 21.598,14.489 20.507,14.489 C19.779,14.489 19.088,14.406 18.433,14.237 C17.78,14.071 17.174,13.832 16.62,13.52 C16.066,13.21 15.564,12.833 15.116,12.389 C14.667,11.946 14.285,11.446 13.971,10.889 C13.658,10.332 13.416,9.725 13.246,9.071 C13.075,8.418 12.99,7.723 12.99,6.989 C12.99,6.302 13.086,5.655 13.275,5.045 C13.466,4.433 13.732,3.869 14.073,3.35 C14.413,2.83 14.816,2.365 15.282,1.951 C15.749,1.537 16.261,1.187 16.818,0.9 C17.376,0.612 17.967,0.39 18.592,0.235 C19.217,0.079 19.855,0 20.507,0" id="Fill-43" fill="#1A1919" mask="url(#mask-2)"></path>
                </g>
                <polyline id="Fill-45" fill="#1A1919" points="209.356 62.6833035 212.886 62.6833035 219.364 70.9923035 219.399 70.9923035 219.399 62.6833035 222.928 62.6833035 222.928 76.2733035 219.399 76.2733035 212.93 67.9473035 212.886 67.9473035 212.886 76.2733035 209.356 76.2733035 209.356 62.6833035"></polyline>
                <polyline id="Fill-46" fill="#1A1919" points="228.468 62.6833035 231.945 62.6833035 234.709 69.9453035 237.622 62.6833035 241.143 62.6833035 243.194 76.2733035 239.665 76.2733035 238.669 68.4483035 238.634 68.4483035 235.369 76.2733035 233.969 76.2733035 230.844 68.4483035 230.81 68.4483035 229.674 76.2733035 226.164 76.2733035 228.468 62.6833035"></polyline>
                <polyline id="Fill-47" fill="#1A1919" points="250.004 65.6763035 250.004 67.9473035 253.992 67.9473035 253.992 70.9403035 250.004 70.9403035 250.004 73.2813035 254.21 73.2813035 254.21 76.2723035 246.474 76.2723035 246.474 62.6823035 254.21 62.6823035 254.21 65.6763035 250.004 65.6763035"></polyline>
                <polyline id="Fill-48" fill="#1A1919" points="258.177 62.6833035 261.708 62.6833035 268.185 70.9923035 268.219 70.9923035 268.219 62.6833035 271.75 62.6833035 271.75 76.2733035 268.219 76.2733035 261.751 67.9473035 261.708 67.9473035 261.708 76.2733035 258.177 76.2733035 258.177 62.6833035"></polyline>
                <polyline id="Fill-49" fill="#1A1919" points="281.05 76.2733035 277.521 76.2733035 277.521 65.6763035 274.598 65.6763035 274.598 62.6833035 283.973 62.6833035 283.973 65.6763035 281.05 65.6763035 281.05 76.2733035"></polyline>
                <path d="M291.895,66.8813035 L291.86,66.8813035 L290.399,71.2113035 L293.338,71.2113035 L291.895,66.8813035 Z M289.421,73.9133035 L288.489,76.2733035 L284.739,76.2733035 L289.968,62.6833035 L293.823,62.6833035 L298.946,76.2733035 L295.178,76.2733035 L294.29,73.9133035 L289.421,73.9133035 L289.421,73.9133035 Z" id="Fill-50" fill="#1A1919"></path>
                <polyline id="Fill-51" fill="#1A1919" points="305.603 73.2813035 309.846 73.2813035 309.846 76.2743035 302.073 76.2743035 302.073 62.6823035 305.603 62.6823035 305.603 73.2813035"></polyline>
                <path d="M328.247,66.1773035 C327.918,65.9083035 327.554,65.6903035 327.156,65.5263035 C326.755,65.3613035 326.339,65.2793035 325.905,65.2793035 C325.74,65.2793035 325.571,65.3043035 325.394,65.3493035 C325.219,65.3973035 325.055,65.4683035 324.907,65.5613035 C324.756,65.6563035 324.632,65.7743035 324.536,65.9183035 C324.44,66.0623035 324.391,66.2273035 324.391,66.4143035 C324.391,66.6143035 324.444,66.7853035 324.55,66.9253035 C324.655,67.0663035 324.788,67.1863035 324.946,67.2863035 C325.104,67.3853035 325.274,67.4703035 325.456,67.5373035 C325.637,67.6053035 325.806,67.6623035 325.959,67.7083035 L326.855,67.9823035 C327.331,68.1233035 327.772,68.2903035 328.18,68.4883035 C328.587,68.6843035 328.943,68.9293035 329.241,69.2233035 C329.541,69.5163035 329.776,69.8643035 329.951,70.2663035 C330.122,70.6673035 330.21,71.1453035 330.21,71.6963035 C330.21,72.0303035 330.188,72.3673035 330.144,72.7033035 C330.1,73.0413035 330.023,73.3683035 329.915,73.6853035 C329.806,74.0023035 329.661,74.3033035 329.479,74.5883035 C329.297,74.8723035 329.07,75.1283035 328.8,75.3573035 C328.267,75.8103035 327.665,76.1353035 326.992,76.3343035 C326.32,76.5353035 325.637,76.6343035 324.946,76.6343035 C324.089,76.6343035 323.252,76.4973035 322.438,76.2243035 C321.622,75.9513035 320.865,75.5723035 320.168,75.0853035 L321.68,72.2323035 C321.904,72.4283035 322.136,72.6093035 322.376,72.7793035 C322.616,72.9493035 322.869,73.0983035 323.131,73.2283035 C323.398,73.3563035 323.668,73.4583035 323.951,73.5313035 C324.232,73.6043035 324.523,73.6423035 324.823,73.6423035 C325.028,73.6423035 325.234,73.6153035 325.439,73.5633035 C325.643,73.5093035 325.828,73.4273035 325.988,73.3163035 C326.151,73.2033035 326.282,73.0623035 326.381,72.8893035 C326.481,72.7153035 326.53,72.5093035 326.53,72.2693035 C326.53,72.0223035 326.454,71.8133035 326.301,71.6443035 C326.149,71.4733035 325.962,71.3273035 325.741,71.2063035 C325.522,71.0873035 325.29,70.9893035 325.043,70.9123035 C324.796,70.8373035 324.579,70.7723035 324.391,70.7193035 C323.834,70.5603035 323.329,70.3953035 322.877,70.2263035 C322.426,70.0553035 322.041,69.8313035 321.72,69.5533035 C321.4,69.2753035 321.152,68.9233035 320.977,68.5013035 C320.8,68.0783035 320.711,67.5383035 320.711,66.8803035 C320.711,66.1953035 320.827,65.5703035 321.058,65.0063035 C321.292,64.4433035 321.617,63.9633035 322.032,63.5673035 C322.449,63.1723035 322.943,62.8653035 323.515,62.6473035 C324.088,62.4303035 324.714,62.3223035 325.394,62.3223035 C325.735,62.3223035 326.092,62.3483035 326.468,62.4013035 C326.843,62.4543035 327.216,62.5293035 327.586,62.6253035 C327.956,62.7223035 328.317,62.8403035 328.668,62.9783035 C329.02,63.1163035 329.349,63.2703035 329.655,63.4403035 L328.247,66.1773035" id="Fill-52" fill="#1A1919"></path>
                <path d="M343.267,67.2423035 C343.086,66.9953035 342.877,66.7813035 342.647,66.5963035 C342.416,66.4103035 342.166,66.2553035 341.898,66.1283035 C341.632,66.0023035 341.352,65.9093035 341.058,65.8433035 C340.766,65.7783035 340.468,65.7463035 340.168,65.7463035 C339.629,65.7463035 339.137,65.8433035 338.691,66.0363035 C338.244,66.2303035 337.862,66.4973035 337.547,66.8373035 C337.229,67.1773035 336.983,67.5763035 336.807,68.0353035 C336.631,68.4933035 336.543,68.9863035 336.543,69.5133035 C336.543,70.0533035 336.631,70.5483035 336.807,71.0003035 C336.983,71.4523035 337.231,71.8423035 337.554,72.1673035 C337.877,72.4923035 338.265,72.7473035 338.716,72.9333035 C339.168,73.1173035 339.67,73.2093035 340.222,73.2093035 C340.509,73.2093035 340.795,73.1763035 341.08,73.1093035 C341.365,73.0403035 341.638,72.9443035 341.898,72.8193035 C342.161,72.6933035 342.407,72.5403035 342.637,72.3653035 C342.869,72.1893035 343.081,71.9903035 343.267,71.7663035 L343.267,76.0003035 C342.973,76.0883035 342.699,76.1713035 342.44,76.2513035 C342.182,76.3293035 341.93,76.3983035 341.683,76.4533035 C341.437,76.5093035 341.188,76.5543035 340.939,76.5863035 C340.69,76.6183035 340.428,76.6343035 340.152,76.6343035 C339.2,76.6343035 338.29,76.4603035 337.418,76.1153035 C336.547,75.7693035 335.756,75.2753035 335.046,74.6353035 C334.295,73.9553035 333.744,73.1823035 333.392,72.3163035 C333.04,71.4513035 332.865,70.5103035 332.865,69.4953035 C332.865,68.5633035 333.034,67.6673035 333.374,66.8113035 C333.714,65.9543035 334.213,65.1923035 334.871,64.5223035 C335.205,64.1823035 335.573,63.8753035 335.97,63.6023035 C336.369,63.3313035 336.791,63.0983035 337.234,62.9073035 C337.678,62.7173035 338.135,62.5713035 338.611,62.4713035 C339.087,62.3723035 339.562,62.3223035 340.037,62.3223035 C340.607,62.3223035 341.156,62.3823035 341.683,62.5033035 C342.211,62.6233035 342.741,62.7913035 343.267,63.0083035 L343.267,67.2423035" id="Fill-53" fill="#1A1919"></path>
                <polygon id="Fill-54" fill="#1A1919" points="347.252 76.2713035 350.783 76.2713035 350.783 62.6823035 347.252 62.6823035"></polygon>
                <polyline id="Fill-55" fill="#1A1919" points="358.396 65.6763035 358.396 67.9473035 362.382 67.9473035 362.382 70.9403035 358.396 70.9403035 358.396 73.2813035 362.603 73.2813035 362.603 76.2723035 354.866 76.2723035 354.866 62.6823035 362.603 62.6823035 362.603 65.6763035 358.396 65.6763035"></polyline>
                <polyline id="Fill-56" fill="#1A1919" points="366.921 62.6833035 370.451 62.6833035 376.93 70.9923035 376.963 70.9923035 376.963 62.6833035 380.495 62.6833035 380.495 76.2733035 376.963 76.2733035 370.496 67.9473035 370.451 67.9473035 370.451 76.2733035 366.921 76.2733035 366.921 62.6833035"></polyline>
                <path d="M393.923,67.2423035 C393.742,66.9953035 393.534,66.7813035 393.303,66.5963035 C393.072,66.4103035 392.822,66.2553035 392.554,66.1283035 C392.289,66.0023035 392.007,65.9093035 391.713,65.8433035 C391.421,65.7783035 391.125,65.7463035 390.825,65.7463035 C390.286,65.7463035 389.793,65.8433035 389.346,66.0363035 C388.9,66.2303035 388.518,66.4973035 388.203,66.8373035 C387.885,67.1773035 387.639,67.5763035 387.463,68.0353035 C387.287,68.4933035 387.199,68.9863035 387.199,69.5133035 C387.199,70.0533035 387.287,70.5483035 387.463,71.0003035 C387.639,71.4523035 387.887,71.8423035 388.21,72.1673035 C388.534,72.4923035 388.921,72.7473035 389.373,72.9333035 C389.826,73.1173035 390.326,73.2093035 390.878,73.2093035 C391.166,73.2093035 391.451,73.1763035 391.736,73.1093035 C392.02,73.0403035 392.293,72.9443035 392.554,72.8193035 C392.816,72.6933035 393.063,72.5403035 393.293,72.3653035 C393.525,72.1893035 393.736,71.9903035 393.923,71.7663035 L393.923,76.0003035 C393.628,76.0883035 393.354,76.1713035 393.095,76.2513035 C392.837,76.3293035 392.585,76.3983035 392.339,76.4533035 C392.093,76.5093035 391.844,76.5543035 391.594,76.5863035 C391.345,76.6183035 391.084,76.6343035 390.808,76.6343035 C389.856,76.6343035 388.945,76.4603035 388.074,76.1153035 C387.203,75.7693035 386.412,75.2753035 385.703,74.6353035 C384.951,73.9553035 384.399,73.1823035 384.047,72.3163035 C383.695,71.4513035 383.52,70.5103035 383.52,69.4953035 C383.52,68.5633035 383.689,67.6673035 384.029,66.8113035 C384.37,65.9543035 384.87,65.1923035 385.526,64.5223035 C385.861,64.1823035 386.228,63.8753035 386.626,63.6023035 C387.025,63.3313035 387.446,63.0983035 387.889,62.9073035 C388.333,62.7173035 388.792,62.5713035 389.268,62.4713035 C389.743,62.3723035 390.217,62.3223035 390.694,62.3223035 C391.262,62.3223035 391.811,62.3823035 392.339,62.5033035 C392.868,62.6233035 393.396,62.7913035 393.923,63.0083035 L393.923,67.2423035" id="Fill-57" fill="#1A1919"></path>
                <polyline id="Fill-58" fill="#1A1919" points="401.426 65.6763035 401.426 67.9473035 405.414 67.9473035 405.414 70.9403035 401.426 70.9403035 401.426 73.2813035 405.632 73.2813035 405.632 76.2723035 397.896 76.2723035 397.896 62.6823035 405.632 62.6823035 405.632 65.6763035 401.426 65.6763035"></polyline>
                <path d="M416.861,66.1773035 C416.532,65.9083035 416.168,65.6903035 415.769,65.5263035 C415.37,65.3613035 414.955,65.2793035 414.52,65.2793035 C414.355,65.2793035 414.185,65.3043035 414.009,65.3493035 C413.833,65.3973035 413.67,65.4683035 413.521,65.5613035 C413.372,65.6563035 413.247,65.7743035 413.15,65.9183035 C413.054,66.0623035 413.005,66.2273035 413.005,66.4143035 C413.005,66.6143035 413.058,66.7853035 413.165,66.9253035 C413.27,67.0663035 413.401,67.1863035 413.561,67.2863035 C413.718,67.3853035 413.888,67.4703035 414.07,67.5373035 C414.252,67.6053035 414.419,67.6623035 414.573,67.7083035 L415.469,67.9823035 C415.945,68.1233035 416.387,68.2903035 416.795,68.4883035 C417.203,68.6843035 417.557,68.9293035 417.855,69.2233035 C418.155,69.5163035 418.391,69.8643035 418.563,70.2663035 C418.737,70.6673035 418.824,71.1453035 418.824,71.6963035 C418.824,72.0303035 418.801,72.3673035 418.757,72.7033035 C418.714,73.0413035 418.637,73.3683035 418.529,73.6853035 C418.419,74.0023035 418.275,74.3033035 418.093,74.5883035 C417.911,74.8723035 417.685,75.1283035 417.416,75.3573035 C416.881,75.8103035 416.279,76.1353035 415.606,76.3343035 C414.935,76.5353035 414.252,76.6343035 413.561,76.6343035 C412.704,76.6343035 411.867,76.4973035 411.052,76.2243035 C410.237,75.9513035 409.479,75.5723035 408.782,75.0853035 L410.295,72.2323035 C410.518,72.4283035 410.749,72.6093035 410.99,72.7793035 C411.23,72.9493035 411.483,73.0983035 411.747,73.2283035 C412.012,73.3563035 412.284,73.4583035 412.566,73.5313035 C412.847,73.6043035 413.137,73.6423035 413.437,73.6423035 C413.642,73.6423035 413.848,73.6153035 414.053,73.5633035 C414.258,73.5093035 414.442,73.4273035 414.603,73.3163035 C414.765,73.2033035 414.894,73.0623035 414.995,72.8893035 C415.094,72.7153035 415.145,72.5093035 415.145,72.2693035 C415.145,72.0223035 415.069,71.8133035 414.916,71.6443035 C414.763,71.4733035 414.577,71.3273035 414.356,71.2063035 C414.137,71.0873035 413.904,70.9893035 413.658,70.9123035 C413.412,70.8373035 413.193,70.7723035 413.005,70.7193035 C412.448,70.5603035 411.943,70.3953035 411.492,70.2263035 C411.039,70.0553035 410.653,69.8313035 410.335,69.5533035 C410.013,69.2753035 409.766,68.9233035 409.589,68.5013035 C409.415,68.0783035 409.327,67.5383035 409.327,66.8803035 C409.327,66.1953035 409.442,65.5703035 409.673,65.0063035 C409.906,64.4433035 410.231,63.9633035 410.647,63.5673035 C411.064,63.1723035 411.557,62.8653035 412.129,62.6473035 C412.703,62.4303035 413.329,62.3223035 414.009,62.3223035 C414.349,62.3223035 414.707,62.3483035 415.083,62.4013035 C415.459,62.4543035 415.831,62.5293035 416.201,62.6253035 C416.57,62.7223035 416.932,62.8403035 417.283,62.9783035 C417.634,63.1163035 417.963,63.2703035 418.269,63.4403035 L416.861,66.1773035" id="Fill-59" fill="#1A1919"></path>
            </g>
        </g>
    </g>
</svg>