<?xml version="1.0" encoding="UTF-8"?>
<svg width="328px" height="55px" viewBox="0 0 328 55" version="1.1" xmlns="http://www.w3.org/2000/svg" xmlns:xlink="http://www.w3.org/1999/xlink">
    <title>gold</title>
    <g id="Symbols" stroke="none" stroke-width="1" fill="none" fill-rule="evenodd">
        <g id="Artboard" transform="translate(-375, -293)" fill="#030304">
            <g id="gold" transform="translate(375, 293)">
                <path d="M286.757034,49.5560727 L291.994034,35.7010727 L292.908034,36.4870727 C296.123034,39.1120727 300.484034,41.3430727 304.603034,41.4300727 C308.285034,41.5170727 310.085034,40.5360727 309.595034,37.4210727 C309.230034,35.0940727 306.603034,34.6840727 304.964034,34.3600727 L301.361034,33.6410727 C294.353034,32.3320727 288.462034,28.0090727 288.462034,19.8230727 C288.462034,7.44507266 299.134034,0.503072659 309.867034,0.503072659 C315.511034,0.503072659 320.679034,1.93807266 325.523034,5.08707266 L320.976034,17.3640727 C318.482034,15.5680727 314.705034,13.0400727 309.923034,12.8650727 C308.351034,12.8050727 304.755034,13.6300727 305.908034,17.2830727 C306.404034,18.8380727 308.634034,19.4910727 310.003034,19.8230727 L314.066034,20.8040727 C321.664034,22.5720727 327.160034,26.8960727 327.160034,35.7320727 C327.160034,48.1770727 316.421034,54.3370727 305.750034,54.3370727 C299.529034,54.3370727 292.320034,52.5670727 286.757034,49.5560727" id="Fill-1"></path>
                <polygon id="Fill-2" points="264.927034 53.5570727 282.892034 53.5570727 282.892034 1.35207266 264.927034 1.35207266"></polygon>
                <polyline id="Fill-3" points="244.322034 1.35207266 263.048034 1.35207266 243.925034 53.5570727 228.734034 53.5570727 209.677034 1.35207266 228.335034 1.35207266 236.332034 32.8530727 244.322034 1.35207266"></polyline>
                <path d="M165.335034,53.5570727 L184.328034,53.5570727 L185.767034,47.0010727 L199.324034,47.0010727 L201.125034,53.5570727 L220.121034,53.5570727 L202.335034,1.35207266 L182.417034,1.35207266 L165.335034,53.5570727 Z M192.578034,16.4200727 L192.578034,16.4200727 C192.910034,18.6440727 196.179034,34.6190727 196.179034,34.6190727 L189.000034,34.6190727 L192.578034,16.4200727 L192.578034,16.4200727 Z" id="Fill-4"></path>
                <path d="M136.780034,38.5670727 L138.009034,38.5670727 C144.034034,38.5670727 148.503034,34.9520727 148.503034,28.1410727 C148.503034,20.8040727 144.541034,16.7120727 137.924034,16.7120727 L136.780034,16.7120727 L136.780034,38.5670727 Z M118.702034,1.35207266 L137.105034,1.35207266 C153.809034,1.35207266 166.575034,9.02107266 166.575034,28.2070727 C166.575034,43.6660727 156.167034,53.5570727 141.560034,53.5570727 L118.702034,53.5280727 L118.702034,1.35207266 L118.702034,1.35207266 Z" id="Fill-5"></path>
                <path d="M107.767034,2.99007266 L108.740034,11.5540727 C108.971034,13.5900727 110.129034,18.4680727 108.700034,17.8140727 C107.799034,17.4110727 107.063034,15.1960727 106.326034,13.2360727 C105.952034,12.2380727 104.172034,7.52407266 103.706034,7.17707266 C101.458034,5.49207266 95.848034,3.59707266 92.053034,3.58107266 C80.540034,3.53707266 72.925034,12.0270727 72.925034,27.0940727 C72.925034,37.8960727 78.099034,50.8620727 91.263034,50.8620727 C95.979034,50.8620727 105.013034,49.3770727 107.473034,42.6680727 C108.581034,39.6300727 109.600034,36.9340727 110.337034,37.7490727 C110.880034,38.3500727 110.172034,40.7810727 109.844034,42.0890727 C108.292034,48.3120727 108.208034,50.1950727 107.716034,50.4370727 C101.769034,53.4200727 94.143034,54.4040727 87.466034,54.4040727 C66.244034,54.4040727 58.910034,42.0230727 58.910034,29.6480727 C58.910034,8.16507266 72.107034,-0.725927341 92.571034,0.0460726587 C97.742034,0.238072659 102.918034,1.15907266 107.767034,2.99007266" id="Fill-7"></path>
                <path d="M45.089034,3.94107266 L41.694034,2.75507266 C40.549034,1.72807266 41.940034,1.44207266 41.940034,1.44207266 C41.940034,1.44207266 46.852034,2.35107266 59.093034,1.31807266 C59.093034,1.31807266 60.156034,1.52707266 59.418034,2.39007266 L55.406034,4.10907266 C52.790034,5.25007266 52.790034,4.59507266 52.790034,7.46107266 L52.767034,34.0660727 C52.767034,54.8730727 31.599034,54.4040727 27.473034,54.4040727 C25.511034,54.4040727 6.25103401,54.4040727 6.25103401,37.7000727 L6.25103401,9.54107266 C6.25103401,4.62807266 6.77503401,4.76207266 5.14303401,4.18407266 L0.231034007,2.34007266 C0.231034007,2.34007266 -0.596965993,1.16507266 0.882034007,1.24007266 C4.89503401,1.44207266 10.709034,2.30407266 24.217034,1.31807266 C24.217034,1.31807266 25.402034,1.60507266 24.624034,2.46507266 L20.697034,3.61407266 C17.585034,5.00707266 17.997034,3.94107266 17.913034,7.13407266 L18.009034,34.9010727 C18.009034,41.7120727 21.514034,50.1390727 32.384034,50.1390727 C47.386034,50.1390727 47.526034,37.1660727 47.526034,34.2830727 L47.552034,6.77307266 C47.712034,4.18407266 47.386034,4.92307266 45.089034,3.94107266" id="Fill-8"></path>
            </g>
        </g>
    </g>
</svg>